# xmcd
#
# Track frame offsets: 
#        150
#        11797
#        31527
#        52471
#        66163
#        79189
#        91598
#        124046
#
# Disc length: 1891 seconds
#
# Revision: 2
# Processed by: cddbd v1.5.2PL0 Copyright (c) Steve Scherf et al.
# Submitted via: ExactAudioCopyFreeDBPlugin 1.0
#
DISCID=5f076108
DTITLE=The Three Degrees - The Three Degrees
DYEAR=1973
DGENRE=Soul
TTITLE0=Can't You See What You're Doing to Me
TTITLE1=A Woman Needs a Good Man
TTITLE2=Dirty Ol' Man
TTITLE3=When Will I See You Again
TTITLE4=I Didn't Know
TTITLE5=Year of Decision
TTITLE6=If and When
TTITLE7=I Like Being a Woman
EXTD=
EXTT0=
EXTT1=
EXTT2=
EXTT3=
EXTT4=
EXTT5=
EXTT6=
EXTT7=
PLAYORDER=
